<?xml version="1.0" encoding="UTF-8" standalone="no"?>
<svg
   width="40"
   height="40"
   viewBox="0 0 45.761364 45.761375"
   version="1.1"
   id="svg4"
   xmlns="http://www.w3.org/2000/svg"
   xmlns:svg="http://www.w3.org/2000/svg">
  <defs
     id="defs8" />
  <g
     id="g167"
     transform="matrix(0.05397653,0,0,0.05397653,-8.3644567,-6.1822948)">
    <path
       style="fill:#9ee0f6;stroke-width:1.14357"
       d="m 549.57126,962.10038 c -2.20159,-0.25373 -9.14948,-1.00146 -15.43974,-1.66162 -81.88376,-8.59361 -161.83801,-42.97719 -227.48265,-97.82677 -17.90615,-14.96155 -47.54726,-45.43347 -61.09754,-62.81006 -51.66387,-66.25262 -82.46392,-143.30844 -88.87849,-222.3569 -6.10422,-75.224 4.08096,-141.51505 31.71103,-206.39372 21.69624,-50.94533 51.14805,-94.34653 91.21811,-134.42208 28.68618,-28.69011 57.66044,-50.79328 92.69814,-70.71524 25.74125,-14.63614 39.86926,-18.93182 54.19542,-16.47834 8.76878,1.50172 15.50185,4.76246 27.16918,13.15766 4.80736,3.45913 13.1453,8.76118 18.52877,11.78235 13.28809,7.4572 25.25818,16.57917 25.68568,19.57408 0.5713,4.00239 -5.64335,8.03927 -18.405,11.95541 -33.50375,10.28122 -71.70111,29.11754 -100.31195,49.46695 -83.01184,59.04206 -135.09752,148.4204 -144.6502,248.21783 -8.54521,89.27234 19.30741,181.82417 76.38073,253.80654 11.46029,14.45402 34.47832,37.53907 48.97947,49.12207 33.9899,27.14994 80.18591,50.81857 123.34527,63.19624 12.61521,3.61791 19.36116,3.40105 21.42054,-0.6886 2.13221,-4.23429 1.76349,-16.44615 -0.82218,-27.22951 -3.32232,-13.85561 -3.08421,-16.78925 1.75548,-21.62797 3.65631,-3.65558 4.48075,-3.97423 8.78807,-3.39661 3.04123,0.40784 7.04606,2.31127 11.119,5.28468 8.72321,6.3683 70.80312,44.39377 145.8953,89.36446 30.08929,18.01966 30.73932,18.46582 31.94256,21.92432 2.66099,7.64849 -2.78543,12.778 -16.65166,15.68277 -56.36312,11.80717 -63.98672,12.78668 -102.78279,13.2059 -16.66921,0.18013 -32.10895,0.11989 -34.31055,-0.13384 z M 726.6804,921.72919 c -2.91973,-1.14174 -9.61028,-5.19068 -14.86791,-8.99763 -5.25762,-3.80694 -17.50361,-11.7248 -27.21333,-17.59523 -9.70971,-5.87042 -17.86288,-11.32994 -18.11815,-12.13225 -0.25527,-0.80231 1.53617,-3.45865 3.98099,-5.90297 3.21463,-3.214 6.33049,-4.96205 11.25604,-6.31485 27.50499,-7.55423 69.03048,-27.52316 99.02404,-47.61905 30.5842,-20.49162 61.45523,-50.47767 82.86843,-80.49286 40.88795,-57.31325 65.6622,-135.40101 65.6622,-206.96545 0,-88.31883 -35.13524,-175.31303 -96.71009,-239.45239 -41.85107,-43.59412 -96.73006,-76.88296 -153.84123,-93.31798 -16.19644,-4.66089 -22.59731,-5.05917 -25.72769,-1.60083 -2.40413,2.65601 -2.44992,3.67635 -1.26173,28.1134 l 0.78752,16.19664 -2.96918,3.52796 c -4.42767,5.26095 -9.33648,4.86532 -18.76221,-1.51216 -4.09704,-2.77208 -41.67393,-25.83814 -83.50421,-51.25793 -97.17822,-59.05411 -94.27626,-57.23483 -94.68557,-59.3598 -0.65829,-3.41758 47.16946,-15.33128 79.81767,-19.88227 17.89706,-2.49475 63.43732,-3.47947 81.99674,-1.77302 32.2272,2.96314 63.54497,9.85995 95.27441,20.98134 137.11833,48.06097 226.53158,135.96034 268.37675,263.83278 17.36725,53.07172 26.56461,117.28159 23.34031,162.94719 -3.5621,50.45055 -13.361,92.09271 -32.26542,137.11773 C 931.01603,791.06721 858.5267,869.8283 773.6812,912.6381 c -7.26256,3.66441 -16.22099,7.70012 -19.90761,8.96826 -8.45417,2.90808 -19.8386,2.95968 -27.09319,0.12283 z M 477.17908,732.51782 c -10.94386,-4.07592 -18.49168,-12.43771 -22.29239,-24.69643 -1.59387,-5.14085 -1.95679,-10.93749 -1.95679,-31.2535 v -24.94206 l 32.59501,-18.86811 c 117.82678,-68.20579 131.94014,-76.62221 137.26592,-81.8577 12.17002,-11.9637 11.51748,-26.72636 -1.69537,-38.35444 -4.91751,-4.32771 -29.88076,-19.05377 -124.1337,-73.22769 -22.33044,-12.83491 -41.50146,-24.13465 -42.60226,-25.11055 -1.75957,-1.55992 -2.00041,-4.13665 -1.99281,-21.32174 0.0129,-29.26204 2.71573,-41.39684 11.42326,-51.28712 9.8446,-11.18182 24.62992,-12.93584 43.61354,-5.17399 8.85738,3.62153 64.27593,35.14429 222.79238,126.72707 66.96505,38.68902 74.15451,43.67729 80.09708,55.57374 5.60018,11.21104 3.94958,23.83758 -4.51591,34.54506 -7.53877,9.53536 -0.0218,4.93255 -145.84019,89.30212 -136.04665,78.71574 -146.92321,84.9138 -154.23408,87.89119 -8.61782,3.50965 -22.0235,4.47507 -28.52369,2.05415 z M 450.59957,628.86318 c -4.80507,-1.44623 -9.66371,-6.85863 -10.8864,-12.12715 -0.56362,-2.42858 -1.03704,-11.19671 -1.05205,-19.48472 -0.031,-17.12574 0.61738,-18.66283 7.87251,-18.66283 3.21767,0 5.66708,1.06069 9.69541,4.19851 12.94908,10.08651 30.43956,3.24127 30.43956,-11.91312 0,-7.16154 -2.85682,-12.43473 -8.54102,-15.76522 -7.92725,-4.64475 -15.89614,-3.4412 -22.25191,3.36072 -2.63715,2.82225 -3.34786,2.96728 -14.54219,2.96728 -11.30264,0 -11.91857,0.12943 -15.5263,3.26268 -5.54364,4.81454 -8.15086,5.88702 -14.26067,5.86615 -11.93716,-0.0407 -20.61187,-9.51702 -19.33259,-21.1189 1.1696,-10.60702 8.28226,-16.59632 19.70916,-16.59632 6.68028,0 7.61307,0.31754 11.65354,3.96713 l 4.39201,3.96712 50.44556,0.32084 50.44557,0.32083 3.8748,3.75576 c 7.6282,7.39384 18.39381,7.19557 25.62669,-0.47198 9.06036,-9.60486 4.14604,-25.52892 -8.96806,-29.05948 -5.77435,-1.55455 -11.58976,0.15288 -16.57128,4.86543 l -3.59698,3.40276 -75.50589,-0.15851 -75.50589,-0.15851 -3.96956,3.48462 c -7.87831,6.91585 -15.13304,8.39833 -23.19154,4.73908 -11.71998,-5.32188 -15.24309,-20.10727 -7.02191,-29.46879 4.60164,-5.23992 8.77843,-7.24033 15.1176,-7.24033 5.93225,0 10.14779,1.83353 14.2095,6.18037 l 2.77265,2.96727 h 47.20463 47.20465 l 3.20405,2.97375 c 5.28821,4.90808 9.34337,6.47936 15.25602,5.91135 9.52644,-0.91519 15.97042,-8.03207 15.96654,-17.63382 -0.003,-9.49563 -7.99119,-17.49089 -17.5146,-17.53194 -4.87116,-0.021 -7.43393,1.08989 -13.52769,5.86391 -4.08054,3.19681 -4.46742,3.26492 -18.54464,3.26492 -13.4388,0 -14.46113,-0.15686 -15.66365,-2.40334 -0.84304,-1.57491 -1.14614,-8.17678 -0.87934,-19.15288 0.45524,-18.72823 1.62659,-22.54136 8.14522,-26.5152 4.49933,-2.74286 12.18533,-2.90975 17.15654,-0.37253 10.83232,5.52863 139.02974,79.9346 141.29694,82.00896 8.47098,7.75045 7.32325,20.19991 -2.44916,26.56641 -2.01511,1.3128 -34.54334,20.18054 -72.28494,41.92831 -41.18608,23.73258 -70.22146,39.7804 -72.62398,40.13921 -2.2016,0.32879 -5.5662,0.12729 -7.47691,-0.4478 z M 415.1066,555.06597 c 0.98848,-0.98827 1.79722,-2.30849 1.79722,-2.93381 0,-5.73673 -8.15962,-7.84009 -10.49914,-2.70644 -2.42238,5.31547 4.52369,9.81764 8.70192,5.64025 z m -51.01041,-40.41911 c 0.48026,-3.2187 -1.68684,-5.80916 -4.85975,-5.80916 -3.39091,0 -5.23528,2.10773 -5.23528,5.98281 0,6.25441 9.15943,6.09684 10.09503,-0.17365 z m 100.82613,60.72802 c -2.98958,-2.42034 -3.39586,-7.58648 -0.80066,-10.18117 2.59521,-2.59468 7.76239,-2.18848 10.18321,0.8005 2.65888,3.28291 2.60698,4.74333 -0.29981,8.43797 -2.77766,3.5305 -5.53305,3.81649 -9.08274,0.9427 z m 75.10488,-37.75497 c -3.84718,-4.25023 -0.82381,-11.64455 4.74825,-11.61287 3.73897,0.0213 5.18045,0.90669 6.95221,4.27045 1.41082,2.67851 0.18597,6.6895 -2.61353,8.55841 -2.31682,1.54666 -7.17469,0.89659 -9.08693,-1.21599 z m -56.80592,-36.56964 c -1.57539,-1.27542 -2.55703,-3.33399 -2.55703,-5.36231 0,-3.30204 3.63926,-7.43246 6.54866,-7.43246 2.72743,0 7.46148,4.71563 7.46148,7.43246 0,2.71683 -4.73405,7.43246 -7.46148,7.43246 -0.78903,0 -2.58525,-0.93156 -3.99163,-2.07015 z"
       id="path42" />
    <g
       id="g159">
      <g
         id="g73">
        <g
           id="g69">
          <path
             style="fill:#60ccf1;stroke-width:1.14357"
             d="M 538.13441,959.26508 C 442.06426,948.88235 354.1607,907.52206 284.37907,839.86837 214.38367,772.00744 170.27867,682.56272 158.97078,585.54093 c -0.98364,-8.43972 -1.97771,-15.65111 -2.20904,-16.02532 -0.23132,-0.37422 -0.75477,-9.16292 -1.16322,-19.53046 -1.33408,-33.86256 3.88669,-77.84627 13.90987,-117.18724 29.36573,-115.2605 107.91877,-215.17656 212.00685,-269.66352 18.99827,-9.94502 28.13416,-12.64505 40.33914,-11.92187 11.32021,0.67075 16.97903,2.98395 29.73619,12.15553 5.13981,3.69519 14.4917,9.7075 20.78197,13.36069 12.88485,7.48314 22.94214,14.69785 23.87429,17.12651 1.00247,2.61184 -5.94593,7.01304 -15.05607,9.53668 -28.12877,7.79208 -64.35167,24.90145 -93.52278,44.17416 -74.04655,48.9209 -126.03453,122.17502 -146.87641,206.95747 -20.12089,81.84955 -9.22246,167.45405 31.2986,245.84293 18.18493,35.17915 37.39515,61.30982 64.35604,87.54022 37.02541,36.02219 78.91705,61.03789 132.49527,79.11983 24.90371,8.40466 32.45092,9.21446 36.44782,3.9108 2.0828,-2.76376 2.41786,-4.67717 2.30274,-13.14974 -0.0741,-5.45344 -0.97476,-13.17288 -2.00145,-17.1543 -2.84486,-11.03205 -2.51413,-16.67021 1.14673,-19.54926 4.82141,-3.79176 9.57715,-3.06517 17.78547,2.71727 3.97175,2.79795 23.94775,15.24998 44.39111,27.67119 20.44337,12.42121 55.1828,33.59971 77.19873,47.06335 22.01593,13.46364 42.49117,25.72782 45.50053,27.25372 7.52918,3.81773 9.96818,6.53243 9.96818,11.09499 0,5.48624 -2.70557,7.29004 -14.96085,9.97442 -55.20429,12.09181 -59.92843,12.69084 -103.41052,13.11273 -19.49983,0.1892 -39.82883,-0.12879 -45.17556,-0.70663 z m 190.39281,-38.55865 c -3.16203,-1.09312 -10.10991,-5.11866 -15.43975,-8.94566 -5.32983,-3.82699 -17.53914,-11.70765 -27.13179,-17.51257 -9.59266,-5.80492 -17.4412,-11.22854 -17.4412,-12.05248 0,-2.56416 7.74012,-8.43885 12.85144,-9.75413 8.69991,-2.23873 16.06141,-4.82183 29.67747,-10.41361 87.6844,-36.00986 151.41768,-96.48534 187.50232,-177.91791 16.18232,-36.51879 26.98905,-77.70178 30.84022,-117.52787 1.92186,-19.87453 0.71638,-62.18634 -2.3293,-81.75707 C 906.55259,353.07125 816.28043,246.7813 689.10081,204.64671 c -26.79371,-8.87675 -34.07469,-9.45515 -38.27835,-3.04084 -1.55577,2.37393 -1.6722,5.29052 -0.85787,21.49083 1.08444,21.57401 0.49978,25.32246 -4.25693,27.29236 -4.17207,1.72778 -6.99613,0.85885 -14.93477,-4.59533 -3.45965,-2.37691 -19.92871,-12.55346 -36.59792,-22.61455 -74.65693,-45.06094 -138.87323,-84.5677 -139.23772,-85.66097 -0.47454,-1.4233 9.39247,-4.51926 31.80088,-9.97817 77.87167,-18.97026 152.14207,-15.18505 226.19595,11.52814 166.20912,59.95601 260.33637,177.4118 284.41505,354.90459 2.53078,18.65531 3.44747,57.94219 1.81719,77.88247 -5.40559,66.11831 -27.0321,130.9863 -62.55274,187.62486 -18.66613,29.76361 -36.16074,51.64062 -61.58016,77.00599 -32.27289,32.20423 -64.866,55.98016 -103.32591,75.37386 -21.5652,10.87442 -31.45385,12.90034 -43.18029,8.84648 z M 480.18617,731.85806 c -5.98716,-1.42575 -13.98759,-6.76655 -17.59547,-11.74607 -6.4797,-8.94318 -8.13515,-17.0937 -8.79451,-43.29927 l -0.59264,-23.55378 26.73977,-15.50957 c 14.70687,-8.53027 51.70068,-29.98558 82.20848,-47.67846 57.79635,-33.51877 63.89763,-37.74587 68.65086,-47.56276 4.73838,-9.78623 1.23891,-22.49614 -8.55874,-31.08494 -4.84411,-4.24644 -30.1393,-19.17519 -120.70742,-71.23926 -25.47558,-14.64491 -46.73858,-27.18613 -47.25111,-27.8694 -0.51253,-0.68326 -0.66852,-11.27612 -0.34664,-23.53968 0.74551,-28.40308 2.76321,-36.75614 11.19886,-46.36188 5.7992,-6.60361 11.55692,-8.9907 21.53099,-8.92652 10.57645,0.068 21.23484,3.58494 35.2884,11.6439 178.92019,102.60098 267.081,153.75118 273.99176,158.96782 7.73552,5.8392 14.03811,15.09218 15.70021,23.04989 2.47904,11.86894 -3.28748,23.92341 -16.21134,33.88855 -3.44542,2.65665 -28.13737,17.53585 -54.871,33.06491 -122.87819,71.37759 -225.33566,130.34333 -231.60113,133.2898 -10.38528,4.88387 -20.46082,6.44766 -28.77933,4.46672 z m -33.81441,-108.57715 -3.73503,-3.33272 -0.57184,-18.45443 c -0.3395,-10.95626 -0.13039,-18.89405 0.51466,-19.53641 2.11985,-2.11099 7.73496,-1.08107 11.9013,2.18296 6.2623,4.90607 8.65817,5.88273 14.43101,5.88273 20.05675,0 27.99026,-25.10999 11.50231,-36.40544 -7.69232,-5.26981 -17.06566,-4.67396 -24.33484,1.54696 -4.64884,3.97843 -4.67622,3.98518 -16.1579,3.98518 -11.00751,0 -11.66242,0.14004 -15.25793,3.26268 -5.32646,4.62591 -8.13416,5.88521 -13.11699,5.88319 -9.97658,-0.005 -16.86285,-6.7153 -16.86285,-16.43423 0,-10.49181 6.43236,-16.71211 17.28994,-16.71993 5.28342,-0.003 6.51492,0.49772 11.22049,4.56954 l 5.2857,4.57383 h 50.0386 50.0386 l 3.30463,3.4486 c 11.44891,11.94768 33.58255,2.33518 33.69612,-14.63402 0.0841,-12.55622 -13.57686,-23.28547 -25.21081,-19.80056 -2.49579,0.74762 -6.30198,2.90794 -8.45818,4.80073 l -3.92036,3.44144 -75.44267,-0.0925 -75.44268,-0.0925 -5.19279,4.49341 c -3.24047,2.80404 -6.82699,4.76029 -9.53948,5.20325 -12.83135,2.09543 -23.05624,-8.93085 -19.73099,-21.2774 3.38986,-12.58647 18.97551,-16.56086 28.49572,-7.26649 l 4.14027,4.04206 h 47.08899 47.08898 l 3.86156,3.38982 c 9.8216,8.62175 22.69721,7.48226 30.66786,-2.71411 3.57247,-4.57003 4.31109,-14.76258 1.49911,-20.68719 -2.9067,-6.12423 -10.73561,-10.86186 -17.94908,-10.86186 -6.17631,0 -8.77685,1.06852 -14.32269,5.88496 -3.68099,3.19688 -4.03277,3.26268 -17.44119,3.26268 h -13.68442 v -18.98136 -18.98136 l 3.88853,-3.88775 c 3.32967,-3.329 4.66852,-3.88775 9.31577,-3.88775 5.75526,0 3.80506,-0.98935 45.12363,22.89149 7.86283,4.54447 24.58922,14.18413 37.16975,21.42147 66.71755,38.38132 67.7109,38.99555 69.64074,43.06157 2.32172,4.89167 2.31995,7.88972 -0.008,12.79361 -2.00226,4.21859 -4.12578,5.60367 -41.04105,26.76935 -11.32248,6.49184 -26.5049,15.23797 -33.7387,19.43586 -23.73126,13.77158 -66.85337,38.5366 -69.40367,39.8585 -1.37396,0.71217 -4.83978,1.29485 -7.70183,1.29485 -4.13125,0 -5.97351,-0.68686 -8.93874,-3.3327 z m -29.46794,-66.41808 c 3.94554,-3.94475 2.37062,-10.59004 -2.99302,-12.62887 -4.90589,-1.86485 -10.58881,2.4769 -10.71558,8.1867 -0.009,0.38687 1.05106,2.05917 2.35476,3.71623 2.90011,3.68616 8.06287,4.01625 11.35384,0.72594 z m -53.33558,-36.67357 c 7.98236,-6.27766 -0.98179,-17.6924 -9.3126,-11.85846 -4.31049,3.01859 -3.00684,11.63403 2.03289,13.43483 3.04688,1.0887 4.21166,0.83648 7.27971,-1.57637 z m 102.56627,53.31661 c -2.24768,-2.70775 -1.01324,-6.86875 2.17105,-7.31813 3.23722,-0.45684 5.97576,2.52372 4.92961,5.36529 -1.36932,3.71934 -4.84159,4.6743 -7.10066,1.95284 z m 75.70885,-37.40479 c -3.31519,-3.31452 -0.35059,-8.31684 4.51982,-7.62655 2.1792,0.30886 2.63624,1.06746 2.63624,4.37573 0,3.4205 -0.41668,4.05078 -2.86724,4.33711 -1.57699,0.18424 -3.50696,-0.30459 -4.28882,-1.08629 z m -56.6339,-36.5648 c -2.50306,-1.40049 -2.56281,-6.26271 -0.094,-7.64408 2.60618,-1.45819 5.91879,-0.37927 6.73562,2.1938 1.2253,3.85983 -3.11642,7.42272 -6.64167,5.45028 z"
             id="path40" />
        </g>
      </g>
      <path
         style="fill:#36c0ee;stroke-width:1.14357"
         d="m 731.98899,920.62278 c -5.1169,-1.34516 -10.58637,-4.3783 -18.8708,-10.46496 -4.08867,-3.004 -15.41115,-10.32084 -25.16106,-16.25966 -9.74992,-5.93881 -17.72712,-11.49988 -17.72712,-12.35795 0,-2.36559 6.82817,-6.47009 14.0958,-8.47316 8.91426,-2.45691 31.511,-11.32441 45.7565,-17.95595 23.30546,-10.8491 48.47581,-26.07236 69.37497,-41.95861 13.18168,-10.01989 46.25917,-42.43074 56.17147,-55.03939 38.32439,-48.74943 64.90527,-112.98827 73.57436,-177.80944 C 940.7476,493.98224 917.65654,403.7899 865.42408,331.18657 839.57182,295.25182 802.01489,260.65292 763.54145,237.32833 732.98877,218.80571 685.26389,199.28634 662.66077,196.06837 c -5.83478,-0.8307 -11.49869,1.27494 -13.50344,5.02008 -0.69775,1.30349 -0.86231,10.36095 -0.43271,23.81472 l 0.69329,21.71119 -2.71488,1.9012 c -3.94004,2.75916 -5.75502,2.40907 -13.22653,-2.55125 -3.68858,-2.44884 -30.38079,-18.83283 -59.31601,-36.40885 -101.93131,-61.91579 -117.36868,-71.51337 -116.44482,-72.39498 1.6027,-1.52937 29.88249,-8.88911 47.82373,-12.44597 86.54552,-17.15776 163.84208,-6.55961 253.46321,34.7524 64.48106,29.72338 118.36175,72.77959 158.17355,126.39696 43.23869,58.23259 72.17292,138.21695 80.16217,221.59635 15.08087,157.39117 -73.43494,320.40196 -216.17089,398.10033 -24.25496,13.2032 -39.03292,17.72935 -49.17845,15.06223 z M 479.73648,730.30596 c -9.30257,-2.60652 -15.3423,-8.13318 -19.99691,-18.29816 -3.60224,-7.86676 -5.38457,-24.51221 -4.85554,-45.3466 l 0.33324,-13.1231 48.03476,-27.81789 c 99.10833,-57.39561 114.74506,-66.68205 119.85872,-71.18236 11.80166,-10.38615 14.36973,-24.88351 6.46059,-36.47145 -2.15757,-3.16113 -6.28929,-7.55181 -9.18161,-9.75708 C 617.4974,506.10405 583.7823,486.21251 545.46728,464.1059 507.15224,441.99929 471.043,421.13491 465.22451,417.74062 l -10.57909,-6.17146 0.031,-13.96991 c 0.0611,-27.52098 2.65563,-41.80384 9.41506,-51.82866 9.11682,-13.521 27.47346,-14.73138 50.03801,-3.29936 14.24913,7.21914 269.46659,154.45262 278.48674,160.6574 15.78611,10.85895 21.74968,26.59401 15.49021,40.87135 -4.53434,10.3425 -13.19111,17.06294 -48.16668,37.39292 -153.24154,89.07348 -252.28758,145.75893 -257.44595,147.33994 -8.7984,2.69667 -16.77867,3.24832 -22.75733,1.57312 z"
         id="path38" />
    </g>
  </g>
</svg>
