<?xml version="1.0" encoding="UTF-8"?>
<svg width="36px" height="36px" viewBox="0 0 36 36" version="1.1" xmlns="http://www.w3.org/2000/svg" xmlns:xlink="http://www.w3.org/1999/xlink">
    <!-- Generator: Sketch 63 (92445) - https://sketch.com -->
    <title>LOGO</title>
    <desc>Created with Sketch.</desc>
    <g id="LOGO" stroke="none" stroke-width="1" fill="none" fill-rule="evenodd">
        <g id="编组-3" transform="translate(0.000000, 2.000000)">
            <path d="M8.576696,0.000152380952 C8.576696,0.000152380952 8.81778702,8.13840546 7.3856064,12.9671776 C6.87864902,15.782667 4.93180776,21.517729 4.11005795,23.430156 C3.28914093,25.5434876 2.67142325,26.6512873 0.924033803,30.4763429 C0.924033803,30.4763429 2.26856389,29.5668256 4.02636314,28.2536836 C4.46815515,27.1706944 6.26592804,23.079783 7.00356665,20.9067448 C7.41350467,19.6995014 8.74054629,14.5695739 9.25000202,12.3570002 C9.25000202,12.3570002 10.0594683,7.4301963 10.0507944,5.32009207 C10.0507944,5.32009207 10.0332356,1.0998836 10.0324028,0.898777213 L8.576696,0.000152380952 Z" id="Fill-22" fill="#E307F3"></path>
            <path d="M10.3384526,1.0160254 C10.3384526,1.0160254 10.5656746,7.21013334 9.87285058,10.8101414 C9.87589373,11.6092517 8.58681505,17.7096889 8.18897381,19.3099153 C7.39187118,22.1108131 5.99445634,26.4128508 5.99445634,26.4128508 C5.99445634,26.4128508 7.80776845,25.0067857 8.51256218,24.3045554 C10.0189218,19.572675 10.5029857,16.7027778 10.8967694,14.1034628 C11.093154,12.7038163 11.5826956,8.80494413 11.5717402,6.10714446 C11.5611906,3.50722777 11.557336,2.5099445 11.5540899,1.7106336 L10.3384526,1.0160254 Z" id="Fill-23" fill="#E307F3"></path>
            <path d="M11.9348064,2.03189841 C11.9348064,2.03189841 11.9513743,6.27617506 11.9549246,7.18560496 C11.9584749,8.09523771 11.8714932,11.0261864 11.5858934,13.3515924 C11.3000963,15.6772012 10.3431003,22.2499267 10.0507944,22.8572952 C10.0507944,22.8572952 11.421989,21.7401348 11.9113351,21.2327772 C12.102261,19.8172068 12.6785888,15.2678259 12.7691208,14.4584069 C12.8462406,13.7717194 13.051762,11.3245963 13.0894344,8.49467279 C13.1119194,6.80402172 13.0263184,4.75592799 12.9202046,2.73522062 C12.525927,2.43356497 11.9348064,2.03189841 11.9348064,2.03189841" id="Fill-24" fill="#E307F3"></path>
            <path d="M14.1071324,8.12713651 C14.1071324,8.12713651 14.1269965,9.05725468 14.1327571,9.33631079 C14.3653657,9.56352153 15.2509074,10.5202853 15.8368984,11.1907636 C16.4638095,11.888094 17.6351957,13.5324802 18.0781651,14.2223746 C18.0781651,14.2223746 18.3830791,13.8935387 18.6705127,13.5260769 C18.2924988,12.8832771 16.9329996,11.0866598 16.3094654,10.3331463 C15.6861299,9.57963284 14.6746498,8.59622342 14.1071324,8.12713651" id="Fill-25" fill="#E307F3"></path>
            <path d="M14.1071324,5.58745397 C14.1071324,5.58745397 14.1307782,6.65459466 14.1347192,6.83255019 C14.505565,7.26924241 16.0281606,8.67353082 19.0981801,12.6985651 L19.6845972,11.9403283 C18.0488955,9.76279251 17.3994229,9.01127107 16.6941854,8.19950942 C15.860078,7.23922106 14.2895995,5.6723828 14.1071324,5.58745397" id="Fill-26" fill="#E307F3"></path>
            <path d="M14.1071324,3.55570794 C14.1071324,3.55570794 14.1267419,4.45139078 14.1324287,4.72011552 C14.4079427,4.98267412 16.3359522,6.821181 16.9824786,7.61323276 C17.3517262,8.0530184 19.1559995,10.359357 20.0839227,11.6826921 L20.6986817,10.9423564 C20.6986817,10.9423564 19.2734606,8.82060448 17.7813711,7.14719125 C16.2147653,5.39023666 14.745815,3.98932743 14.1071324,3.55570794" id="Fill-27" fill="#E307F3"></path>
            <path d="M27.1332774,0.508088889 C27.1332774,0.508088889 22.6604643,10.2280799 18.1717201,15.0919937 C15.9367252,18.115915 10.3186865,23.751633 8.2444144,25.5317458 C6.05338131,27.548966 4.68673325,28.4988016 0.416991549,32.0001524 C0.416991549,32.0001524 2.51445452,31.7005533 5.32922118,31.1628423 C6.47666511,30.1412717 10.9605695,26.355995 13.089088,24.2206231 C14.2718224,23.034283 18.8142081,17.7558334 20.70013,15.443033 C20.70013,15.443033 24.5205738,10.1065122 25.7430351,7.61708691 C25.7430351,7.61708691 28.1877562,2.63843732 28.3043155,2.40112912 L27.1332774,0.508088889 Z" id="Fill-28" fill="#2F54DF"></path>
            <path d="M29.3938351,3.04777143 C29.3938351,3.04777143 25.9760048,10.4975118 22.9882951,14.3426555 C22.5155924,15.2886066 17.3134071,21.7370701 15.8762601,23.3936371 C13.2386246,26.2338957 9.03670986,30.4763429 9.03670986,30.4763429 C9.03670986,30.4763429 12.0164355,29.8988296 13.2904192,29.4830842 C17.9404699,24.7785864 20.2392909,21.6731247 22.2672649,18.8338684 C23.3404165,17.2961717 26.3025361,12.9390638 27.8547367,9.78549273 C29.3924021,6.70849576 29.8595772,5.56910484 30.3324845,4.62295333 L29.3938351,3.04777143 Z" id="Fill-29" fill="#2F54DF"></path>
            <path d="M30.5406499,5.58745397 C30.5406499,5.58745397 28.0870695,10.5971884 27.5612589,11.6705873 C27.0354483,12.7441885 25.2198028,16.1437234 23.5118291,18.7090438 C21.803653,21.2743642 16.8501448,28.414924 16.1353014,28.9525333 C16.1353014,28.9525333 18.4198857,28.4903389 19.3195116,28.1909033 C20.3804428,26.6399439 23.7433639,21.6318269 24.3270582,20.7337222 C24.8223078,19.9716877 26.502554,17.2142917 28.1985867,13.9037182 C29.2117537,11.9261489 30.2998052,9.46131429 31.346569,7.01629379 C31.0358995,6.42085962 30.5406499,5.58745397 30.5406499,5.58745397" id="Fill-30" fill="#2F54DF"></path>
            <path d="M29.3588979,13.7144381 C29.3588979,13.7144381 28.4915758,15.2127155 28.3043155,15.5759405 C28.4727632,16.0297151 29.0505455,17.8743807 29.4069023,19.1435122 C29.801749,20.4754741 30.3894781,24.2019696 30.5302477,25.3969778 C30.5302477,25.3969778 31.2133368,25.1764556 31.8536113,24.9103507 C31.7714416,23.8212917 31.0252116,19.7679143 30.674477,18.3663463 C30.3237424,16.9647782 29.8302921,14.7115102 29.3588979,13.7144381" id="Fill-31" fill="#2F54DF"></path>
            <path d="M30.6629052,10.666819 C30.6629052,10.666819 29.9450206,12.1053478 29.8254423,12.3451365 C30.0239796,13.1833807 31.1963448,16.8968536 32.5500464,24.3811048 L33.8817803,23.7755368 C33.1837909,19.7438359 32.7421592,17.5036408 32.3517162,15.9344476 C31.8899822,14.0787272 30.8519094,10.9059981 30.6629052,10.666819" id="Fill-32" fill="#2F54DF"></path>
            <path d="M32.0964728,7.6192 C32.0964728,7.6192 31.5196545,9.02863072 31.346569,9.39023275 C31.5334454,9.93181861 32.8415797,13.5186247 33.1621676,15.0234612 C33.3536409,15.8659734 34.3321933,20.9574117 34.6665721,23.3652317 L35.9099493,22.8397852 C35.9099493,22.8397852 35.3741039,18.2282357 34.5304621,14.9609469 C33.6446483,11.5304264 32.6479079,8.64190042 32.0964728,7.6192" id="Fill-33" fill="#2F54DF"></path>
        </g>
    </g>
</svg>